<mxfile host="app.diagrams.net" agent="Mozilla/5.0 (Windows NT 10.0; Win64; x64) AppleWebKit/537.36 (KHTML, like Gecko) Chrome/128.0.0.0 Safari/537.36" version="24.7.7">
  <diagram id="R2lEEEUBdFMjLlhIrx00" name="Page-1">
    <mxGraphModel dx="1114" dy="592" grid="1" gridSize="10" guides="1" tooltips="1" connect="1" arrows="1" fold="1" page="1" pageScale="1" pageWidth="850" pageHeight="1100" math="0" shadow="0" extFonts="Permanent Marker^https://fonts.googleapis.com/css?family=Permanent+Marker">
      <root>
        <mxCell id="0" />
        <mxCell id="1" parent="0" />
        <mxCell id="cro3qP4xw-rqxmjzF5Fg-51" value="Patient" style="shape=table;startSize=30;container=1;collapsible=1;childLayout=tableLayout;fixedRows=1;rowLines=0;fontStyle=1;align=center;resizeLast=1;html=1;" vertex="1" parent="1">
          <mxGeometry x="390" y="40" width="200" height="200" as="geometry" />
        </mxCell>
        <mxCell id="cro3qP4xw-rqxmjzF5Fg-52" value="" style="shape=tableRow;horizontal=0;startSize=0;swimlaneHead=0;swimlaneBody=0;fillColor=none;collapsible=0;dropTarget=0;points=[[0,0.5],[1,0.5]];portConstraint=eastwest;top=0;left=0;right=0;bottom=1;" vertex="1" parent="cro3qP4xw-rqxmjzF5Fg-51">
          <mxGeometry y="30" width="200" height="30" as="geometry" />
        </mxCell>
        <mxCell id="cro3qP4xw-rqxmjzF5Fg-53" value="PK" style="shape=partialRectangle;connectable=0;fillColor=none;top=0;left=0;bottom=0;right=0;fontStyle=1;overflow=hidden;whiteSpace=wrap;html=1;" vertex="1" parent="cro3qP4xw-rqxmjzF5Fg-52">
          <mxGeometry width="30" height="30" as="geometry">
            <mxRectangle width="30" height="30" as="alternateBounds" />
          </mxGeometry>
        </mxCell>
        <mxCell id="cro3qP4xw-rqxmjzF5Fg-54" value="Patient_id INT" style="shape=partialRectangle;connectable=0;fillColor=none;top=0;left=0;bottom=0;right=0;align=left;spacingLeft=6;fontStyle=5;overflow=hidden;whiteSpace=wrap;html=1;" vertex="1" parent="cro3qP4xw-rqxmjzF5Fg-52">
          <mxGeometry x="30" width="170" height="30" as="geometry">
            <mxRectangle width="170" height="30" as="alternateBounds" />
          </mxGeometry>
        </mxCell>
        <mxCell id="cro3qP4xw-rqxmjzF5Fg-55" value="" style="shape=tableRow;horizontal=0;startSize=0;swimlaneHead=0;swimlaneBody=0;fillColor=none;collapsible=0;dropTarget=0;points=[[0,0.5],[1,0.5]];portConstraint=eastwest;top=0;left=0;right=0;bottom=0;" vertex="1" parent="cro3qP4xw-rqxmjzF5Fg-51">
          <mxGeometry y="60" width="200" height="30" as="geometry" />
        </mxCell>
        <mxCell id="cro3qP4xw-rqxmjzF5Fg-56" value="" style="shape=partialRectangle;connectable=0;fillColor=none;top=0;left=0;bottom=0;right=0;editable=1;overflow=hidden;whiteSpace=wrap;html=1;" vertex="1" parent="cro3qP4xw-rqxmjzF5Fg-55">
          <mxGeometry width="30" height="30" as="geometry">
            <mxRectangle width="30" height="30" as="alternateBounds" />
          </mxGeometry>
        </mxCell>
        <mxCell id="cro3qP4xw-rqxmjzF5Fg-57" value="first_name VARCHAR(255)" style="shape=partialRectangle;connectable=0;fillColor=none;top=0;left=0;bottom=0;right=0;align=left;spacingLeft=6;overflow=hidden;whiteSpace=wrap;html=1;" vertex="1" parent="cro3qP4xw-rqxmjzF5Fg-55">
          <mxGeometry x="30" width="170" height="30" as="geometry">
            <mxRectangle width="170" height="30" as="alternateBounds" />
          </mxGeometry>
        </mxCell>
        <mxCell id="cro3qP4xw-rqxmjzF5Fg-58" value="" style="shape=tableRow;horizontal=0;startSize=0;swimlaneHead=0;swimlaneBody=0;fillColor=none;collapsible=0;dropTarget=0;points=[[0,0.5],[1,0.5]];portConstraint=eastwest;top=0;left=0;right=0;bottom=0;" vertex="1" parent="cro3qP4xw-rqxmjzF5Fg-51">
          <mxGeometry y="90" width="200" height="30" as="geometry" />
        </mxCell>
        <mxCell id="cro3qP4xw-rqxmjzF5Fg-59" value="" style="shape=partialRectangle;connectable=0;fillColor=none;top=0;left=0;bottom=0;right=0;editable=1;overflow=hidden;whiteSpace=wrap;html=1;" vertex="1" parent="cro3qP4xw-rqxmjzF5Fg-58">
          <mxGeometry width="30" height="30" as="geometry">
            <mxRectangle width="30" height="30" as="alternateBounds" />
          </mxGeometry>
        </mxCell>
        <mxCell id="cro3qP4xw-rqxmjzF5Fg-60" value="&amp;nbsp;last_name VARCHAR(255)" style="shape=partialRectangle;connectable=0;fillColor=none;top=0;left=0;bottom=0;right=0;align=left;spacingLeft=6;overflow=hidden;whiteSpace=wrap;html=1;" vertex="1" parent="cro3qP4xw-rqxmjzF5Fg-58">
          <mxGeometry x="30" width="170" height="30" as="geometry">
            <mxRectangle width="170" height="30" as="alternateBounds" />
          </mxGeometry>
        </mxCell>
        <mxCell id="cro3qP4xw-rqxmjzF5Fg-61" value="" style="shape=tableRow;horizontal=0;startSize=0;swimlaneHead=0;swimlaneBody=0;fillColor=none;collapsible=0;dropTarget=0;points=[[0,0.5],[1,0.5]];portConstraint=eastwest;top=0;left=0;right=0;bottom=0;" vertex="1" parent="cro3qP4xw-rqxmjzF5Fg-51">
          <mxGeometry y="120" width="200" height="30" as="geometry" />
        </mxCell>
        <mxCell id="cro3qP4xw-rqxmjzF5Fg-62" value="" style="shape=partialRectangle;connectable=0;fillColor=none;top=0;left=0;bottom=0;right=0;editable=1;overflow=hidden;whiteSpace=wrap;html=1;" vertex="1" parent="cro3qP4xw-rqxmjzF5Fg-61">
          <mxGeometry width="30" height="30" as="geometry">
            <mxRectangle width="30" height="30" as="alternateBounds" />
          </mxGeometry>
        </mxCell>
        <mxCell id="cro3qP4xw-rqxmjzF5Fg-63" value="date_of_birth DATE" style="shape=partialRectangle;connectable=0;fillColor=none;top=0;left=0;bottom=0;right=0;align=left;spacingLeft=6;overflow=hidden;whiteSpace=wrap;html=1;" vertex="1" parent="cro3qP4xw-rqxmjzF5Fg-61">
          <mxGeometry x="30" width="170" height="30" as="geometry">
            <mxRectangle width="170" height="30" as="alternateBounds" />
          </mxGeometry>
        </mxCell>
        <mxCell id="cro3qP4xw-rqxmjzF5Fg-64" value="" style="shape=tableRow;horizontal=0;startSize=0;swimlaneHead=0;swimlaneBody=0;fillColor=none;collapsible=0;dropTarget=0;points=[[0,0.5],[1,0.5]];portConstraint=eastwest;top=0;left=0;right=0;bottom=0;" vertex="1" parent="cro3qP4xw-rqxmjzF5Fg-51">
          <mxGeometry y="150" width="200" height="20" as="geometry" />
        </mxCell>
        <mxCell id="cro3qP4xw-rqxmjzF5Fg-65" value="" style="shape=partialRectangle;connectable=0;fillColor=none;top=0;left=0;bottom=0;right=0;editable=1;overflow=hidden;whiteSpace=wrap;html=1;" vertex="1" parent="cro3qP4xw-rqxmjzF5Fg-64">
          <mxGeometry width="30" height="20" as="geometry">
            <mxRectangle width="30" height="20" as="alternateBounds" />
          </mxGeometry>
        </mxCell>
        <mxCell id="cro3qP4xw-rqxmjzF5Fg-66" value="gender VARCHAR(255)" style="shape=partialRectangle;connectable=0;fillColor=none;top=0;left=0;bottom=0;right=0;align=left;spacingLeft=6;overflow=hidden;whiteSpace=wrap;html=1;" vertex="1" parent="cro3qP4xw-rqxmjzF5Fg-64">
          <mxGeometry x="30" width="170" height="20" as="geometry">
            <mxRectangle width="170" height="20" as="alternateBounds" />
          </mxGeometry>
        </mxCell>
        <mxCell id="cro3qP4xw-rqxmjzF5Fg-68" value="" style="shape=tableRow;horizontal=0;startSize=0;swimlaneHead=0;swimlaneBody=0;fillColor=none;collapsible=0;dropTarget=0;points=[[0,0.5],[1,0.5]];portConstraint=eastwest;top=0;left=0;right=0;bottom=0;" vertex="1" parent="cro3qP4xw-rqxmjzF5Fg-51">
          <mxGeometry y="170" width="200" height="30" as="geometry" />
        </mxCell>
        <mxCell id="cro3qP4xw-rqxmjzF5Fg-69" value="" style="shape=partialRectangle;connectable=0;fillColor=none;top=0;left=0;bottom=0;right=0;editable=1;overflow=hidden;whiteSpace=wrap;html=1;" vertex="1" parent="cro3qP4xw-rqxmjzF5Fg-68">
          <mxGeometry width="30" height="30" as="geometry">
            <mxRectangle width="30" height="30" as="alternateBounds" />
          </mxGeometry>
        </mxCell>
        <mxCell id="cro3qP4xw-rqxmjzF5Fg-70" value="language VARCHAR(255)" style="shape=partialRectangle;connectable=0;fillColor=none;top=0;left=0;bottom=0;right=0;align=left;spacingLeft=6;overflow=hidden;whiteSpace=wrap;html=1;" vertex="1" parent="cro3qP4xw-rqxmjzF5Fg-68">
          <mxGeometry x="30" width="170" height="30" as="geometry">
            <mxRectangle width="170" height="30" as="alternateBounds" />
          </mxGeometry>
        </mxCell>
        <mxCell id="cro3qP4xw-rqxmjzF5Fg-71" value="Providers" style="shape=table;startSize=30;container=1;collapsible=1;childLayout=tableLayout;fixedRows=1;rowLines=0;fontStyle=1;align=center;resizeLast=1;html=1;" vertex="1" parent="1">
          <mxGeometry x="40" y="40" width="240" height="230" as="geometry" />
        </mxCell>
        <mxCell id="cro3qP4xw-rqxmjzF5Fg-72" value="" style="shape=tableRow;horizontal=0;startSize=0;swimlaneHead=0;swimlaneBody=0;fillColor=none;collapsible=0;dropTarget=0;points=[[0,0.5],[1,0.5]];portConstraint=eastwest;top=0;left=0;right=0;bottom=1;" vertex="1" parent="cro3qP4xw-rqxmjzF5Fg-71">
          <mxGeometry y="30" width="240" height="30" as="geometry" />
        </mxCell>
        <mxCell id="cro3qP4xw-rqxmjzF5Fg-73" value="PK" style="shape=partialRectangle;connectable=0;fillColor=none;top=0;left=0;bottom=0;right=0;fontStyle=1;overflow=hidden;whiteSpace=wrap;html=1;" vertex="1" parent="cro3qP4xw-rqxmjzF5Fg-72">
          <mxGeometry width="30" height="30" as="geometry">
            <mxRectangle width="30" height="30" as="alternateBounds" />
          </mxGeometry>
        </mxCell>
        <mxCell id="cro3qP4xw-rqxmjzF5Fg-74" value="Provider_id INT" style="shape=partialRectangle;connectable=0;fillColor=none;top=0;left=0;bottom=0;right=0;align=left;spacingLeft=6;fontStyle=5;overflow=hidden;whiteSpace=wrap;html=1;" vertex="1" parent="cro3qP4xw-rqxmjzF5Fg-72">
          <mxGeometry x="30" width="210" height="30" as="geometry">
            <mxRectangle width="210" height="30" as="alternateBounds" />
          </mxGeometry>
        </mxCell>
        <mxCell id="cro3qP4xw-rqxmjzF5Fg-75" value="" style="shape=tableRow;horizontal=0;startSize=0;swimlaneHead=0;swimlaneBody=0;fillColor=none;collapsible=0;dropTarget=0;points=[[0,0.5],[1,0.5]];portConstraint=eastwest;top=0;left=0;right=0;bottom=0;" vertex="1" parent="cro3qP4xw-rqxmjzF5Fg-71">
          <mxGeometry y="60" width="240" height="20" as="geometry" />
        </mxCell>
        <mxCell id="cro3qP4xw-rqxmjzF5Fg-76" value="" style="shape=partialRectangle;connectable=0;fillColor=none;top=0;left=0;bottom=0;right=0;editable=1;overflow=hidden;whiteSpace=wrap;html=1;" vertex="1" parent="cro3qP4xw-rqxmjzF5Fg-75">
          <mxGeometry width="30" height="20" as="geometry">
            <mxRectangle width="30" height="20" as="alternateBounds" />
          </mxGeometry>
        </mxCell>
        <mxCell id="cro3qP4xw-rqxmjzF5Fg-77" value="first_name VARCHAR(255)" style="shape=partialRectangle;connectable=0;fillColor=none;top=0;left=0;bottom=0;right=0;align=left;spacingLeft=6;overflow=hidden;whiteSpace=wrap;html=1;" vertex="1" parent="cro3qP4xw-rqxmjzF5Fg-75">
          <mxGeometry x="30" width="210" height="20" as="geometry">
            <mxRectangle width="210" height="20" as="alternateBounds" />
          </mxGeometry>
        </mxCell>
        <mxCell id="cro3qP4xw-rqxmjzF5Fg-78" value="" style="shape=tableRow;horizontal=0;startSize=0;swimlaneHead=0;swimlaneBody=0;fillColor=none;collapsible=0;dropTarget=0;points=[[0,0.5],[1,0.5]];portConstraint=eastwest;top=0;left=0;right=0;bottom=0;" vertex="1" parent="cro3qP4xw-rqxmjzF5Fg-71">
          <mxGeometry y="80" width="240" height="30" as="geometry" />
        </mxCell>
        <mxCell id="cro3qP4xw-rqxmjzF5Fg-79" value="" style="shape=partialRectangle;connectable=0;fillColor=none;top=0;left=0;bottom=0;right=0;editable=1;overflow=hidden;whiteSpace=wrap;html=1;" vertex="1" parent="cro3qP4xw-rqxmjzF5Fg-78">
          <mxGeometry width="30" height="30" as="geometry">
            <mxRectangle width="30" height="30" as="alternateBounds" />
          </mxGeometry>
        </mxCell>
        <mxCell id="cro3qP4xw-rqxmjzF5Fg-80" value="last_name VARCHAR(255)" style="shape=partialRectangle;connectable=0;fillColor=none;top=0;left=0;bottom=0;right=0;align=left;spacingLeft=6;overflow=hidden;whiteSpace=wrap;html=1;" vertex="1" parent="cro3qP4xw-rqxmjzF5Fg-78">
          <mxGeometry x="30" width="210" height="30" as="geometry">
            <mxRectangle width="210" height="30" as="alternateBounds" />
          </mxGeometry>
        </mxCell>
        <mxCell id="cro3qP4xw-rqxmjzF5Fg-81" value="" style="shape=tableRow;horizontal=0;startSize=0;swimlaneHead=0;swimlaneBody=0;fillColor=none;collapsible=0;dropTarget=0;points=[[0,0.5],[1,0.5]];portConstraint=eastwest;top=0;left=0;right=0;bottom=0;" vertex="1" parent="cro3qP4xw-rqxmjzF5Fg-71">
          <mxGeometry y="110" width="240" height="30" as="geometry" />
        </mxCell>
        <mxCell id="cro3qP4xw-rqxmjzF5Fg-82" value="" style="shape=partialRectangle;connectable=0;fillColor=none;top=0;left=0;bottom=0;right=0;editable=1;overflow=hidden;whiteSpace=wrap;html=1;" vertex="1" parent="cro3qP4xw-rqxmjzF5Fg-81">
          <mxGeometry width="30" height="30" as="geometry">
            <mxRectangle width="30" height="30" as="alternateBounds" />
          </mxGeometry>
        </mxCell>
        <mxCell id="cro3qP4xw-rqxmjzF5Fg-83" value="provider_speciality VARCHAR(255)" style="shape=partialRectangle;connectable=0;fillColor=none;top=0;left=0;bottom=0;right=0;align=left;spacingLeft=6;overflow=hidden;whiteSpace=wrap;html=1;" vertex="1" parent="cro3qP4xw-rqxmjzF5Fg-81">
          <mxGeometry x="30" width="210" height="30" as="geometry">
            <mxRectangle width="210" height="30" as="alternateBounds" />
          </mxGeometry>
        </mxCell>
        <mxCell id="cro3qP4xw-rqxmjzF5Fg-84" value="" style="shape=tableRow;horizontal=0;startSize=0;swimlaneHead=0;swimlaneBody=0;fillColor=none;collapsible=0;dropTarget=0;points=[[0,0.5],[1,0.5]];portConstraint=eastwest;top=0;left=0;right=0;bottom=0;" vertex="1" parent="cro3qP4xw-rqxmjzF5Fg-71">
          <mxGeometry y="140" width="240" height="30" as="geometry" />
        </mxCell>
        <mxCell id="cro3qP4xw-rqxmjzF5Fg-85" value="" style="shape=partialRectangle;connectable=0;fillColor=none;top=0;left=0;bottom=0;right=0;editable=1;overflow=hidden;whiteSpace=wrap;html=1;" vertex="1" parent="cro3qP4xw-rqxmjzF5Fg-84">
          <mxGeometry width="30" height="30" as="geometry">
            <mxRectangle width="30" height="30" as="alternateBounds" />
          </mxGeometry>
        </mxCell>
        <mxCell id="cro3qP4xw-rqxmjzF5Fg-86" value="email_address VARCHAR(255)" style="shape=partialRectangle;connectable=0;fillColor=none;top=0;left=0;bottom=0;right=0;align=left;spacingLeft=6;overflow=hidden;whiteSpace=wrap;html=1;" vertex="1" parent="cro3qP4xw-rqxmjzF5Fg-84">
          <mxGeometry x="30" width="210" height="30" as="geometry">
            <mxRectangle width="210" height="30" as="alternateBounds" />
          </mxGeometry>
        </mxCell>
        <mxCell id="cro3qP4xw-rqxmjzF5Fg-87" value="" style="shape=tableRow;horizontal=0;startSize=0;swimlaneHead=0;swimlaneBody=0;fillColor=none;collapsible=0;dropTarget=0;points=[[0,0.5],[1,0.5]];portConstraint=eastwest;top=0;left=0;right=0;bottom=0;" vertex="1" parent="cro3qP4xw-rqxmjzF5Fg-71">
          <mxGeometry y="170" width="240" height="30" as="geometry" />
        </mxCell>
        <mxCell id="cro3qP4xw-rqxmjzF5Fg-88" value="" style="shape=partialRectangle;connectable=0;fillColor=none;top=0;left=0;bottom=0;right=0;editable=1;overflow=hidden;whiteSpace=wrap;html=1;" vertex="1" parent="cro3qP4xw-rqxmjzF5Fg-87">
          <mxGeometry width="30" height="30" as="geometry">
            <mxRectangle width="30" height="30" as="alternateBounds" />
          </mxGeometry>
        </mxCell>
        <mxCell id="cro3qP4xw-rqxmjzF5Fg-89" value="phone_number VARCHAR(255)" style="shape=partialRectangle;connectable=0;fillColor=none;top=0;left=0;bottom=0;right=0;align=left;spacingLeft=6;overflow=hidden;whiteSpace=wrap;html=1;" vertex="1" parent="cro3qP4xw-rqxmjzF5Fg-87">
          <mxGeometry x="30" width="210" height="30" as="geometry">
            <mxRectangle width="210" height="30" as="alternateBounds" />
          </mxGeometry>
        </mxCell>
        <mxCell id="cro3qP4xw-rqxmjzF5Fg-90" value="" style="shape=tableRow;horizontal=0;startSize=0;swimlaneHead=0;swimlaneBody=0;fillColor=none;collapsible=0;dropTarget=0;points=[[0,0.5],[1,0.5]];portConstraint=eastwest;top=0;left=0;right=0;bottom=0;" vertex="1" parent="cro3qP4xw-rqxmjzF5Fg-71">
          <mxGeometry y="200" width="240" height="30" as="geometry" />
        </mxCell>
        <mxCell id="cro3qP4xw-rqxmjzF5Fg-91" value="" style="shape=partialRectangle;connectable=0;fillColor=none;top=0;left=0;bottom=0;right=0;editable=1;overflow=hidden;whiteSpace=wrap;html=1;" vertex="1" parent="cro3qP4xw-rqxmjzF5Fg-90">
          <mxGeometry width="30" height="30" as="geometry">
            <mxRectangle width="30" height="30" as="alternateBounds" />
          </mxGeometry>
        </mxCell>
        <mxCell id="cro3qP4xw-rqxmjzF5Fg-92" value="date_joined DATE" style="shape=partialRectangle;connectable=0;fillColor=none;top=0;left=0;bottom=0;right=0;align=left;spacingLeft=6;overflow=hidden;whiteSpace=wrap;html=1;" vertex="1" parent="cro3qP4xw-rqxmjzF5Fg-90">
          <mxGeometry x="30" width="210" height="30" as="geometry">
            <mxRectangle width="210" height="30" as="alternateBounds" />
          </mxGeometry>
        </mxCell>
        <mxCell id="cro3qP4xw-rqxmjzF5Fg-93" value="Ed_visits" style="shape=table;startSize=30;container=1;collapsible=1;childLayout=tableLayout;fixedRows=1;rowLines=0;fontStyle=1;align=center;resizeLast=1;html=1;" vertex="1" parent="1">
          <mxGeometry x="550" y="280" width="240" height="190" as="geometry" />
        </mxCell>
        <mxCell id="cro3qP4xw-rqxmjzF5Fg-94" value="" style="shape=tableRow;horizontal=0;startSize=0;swimlaneHead=0;swimlaneBody=0;fillColor=none;collapsible=0;dropTarget=0;points=[[0,0.5],[1,0.5]];portConstraint=eastwest;top=0;left=0;right=0;bottom=1;" vertex="1" parent="cro3qP4xw-rqxmjzF5Fg-93">
          <mxGeometry y="30" width="240" height="30" as="geometry" />
        </mxCell>
        <mxCell id="cro3qP4xw-rqxmjzF5Fg-95" value="PK" style="shape=partialRectangle;connectable=0;fillColor=none;top=0;left=0;bottom=0;right=0;fontStyle=1;overflow=hidden;whiteSpace=wrap;html=1;" vertex="1" parent="cro3qP4xw-rqxmjzF5Fg-94">
          <mxGeometry width="30" height="30" as="geometry">
            <mxRectangle width="30" height="30" as="alternateBounds" />
          </mxGeometry>
        </mxCell>
        <mxCell id="cro3qP4xw-rqxmjzF5Fg-96" value="ed_visit_id INT" style="shape=partialRectangle;connectable=0;fillColor=none;top=0;left=0;bottom=0;right=0;align=left;spacingLeft=6;fontStyle=5;overflow=hidden;whiteSpace=wrap;html=1;" vertex="1" parent="cro3qP4xw-rqxmjzF5Fg-94">
          <mxGeometry x="30" width="210" height="30" as="geometry">
            <mxRectangle width="210" height="30" as="alternateBounds" />
          </mxGeometry>
        </mxCell>
        <mxCell id="cro3qP4xw-rqxmjzF5Fg-97" value="" style="shape=tableRow;horizontal=0;startSize=0;swimlaneHead=0;swimlaneBody=0;fillColor=none;collapsible=0;dropTarget=0;points=[[0,0.5],[1,0.5]];portConstraint=eastwest;top=0;left=0;right=0;bottom=0;" vertex="1" parent="cro3qP4xw-rqxmjzF5Fg-93">
          <mxGeometry y="60" width="240" height="20" as="geometry" />
        </mxCell>
        <mxCell id="cro3qP4xw-rqxmjzF5Fg-98" value="" style="shape=partialRectangle;connectable=0;fillColor=none;top=0;left=0;bottom=0;right=0;editable=1;overflow=hidden;whiteSpace=wrap;html=1;" vertex="1" parent="cro3qP4xw-rqxmjzF5Fg-97">
          <mxGeometry width="30" height="20" as="geometry">
            <mxRectangle width="30" height="20" as="alternateBounds" />
          </mxGeometry>
        </mxCell>
        <mxCell id="cro3qP4xw-rqxmjzF5Fg-99" value="visit_id INT" style="shape=partialRectangle;connectable=0;fillColor=none;top=0;left=0;bottom=0;right=0;align=left;spacingLeft=6;overflow=hidden;whiteSpace=wrap;html=1;" vertex="1" parent="cro3qP4xw-rqxmjzF5Fg-97">
          <mxGeometry x="30" width="210" height="20" as="geometry">
            <mxRectangle width="210" height="20" as="alternateBounds" />
          </mxGeometry>
        </mxCell>
        <mxCell id="cro3qP4xw-rqxmjzF5Fg-100" value="" style="shape=tableRow;horizontal=0;startSize=0;swimlaneHead=0;swimlaneBody=0;fillColor=none;collapsible=0;dropTarget=0;points=[[0,0.5],[1,0.5]];portConstraint=eastwest;top=0;left=0;right=0;bottom=0;" vertex="1" parent="cro3qP4xw-rqxmjzF5Fg-93">
          <mxGeometry y="80" width="240" height="20" as="geometry" />
        </mxCell>
        <mxCell id="cro3qP4xw-rqxmjzF5Fg-101" value="" style="shape=partialRectangle;connectable=0;fillColor=none;top=0;left=0;bottom=0;right=0;editable=1;overflow=hidden;whiteSpace=wrap;html=1;" vertex="1" parent="cro3qP4xw-rqxmjzF5Fg-100">
          <mxGeometry width="30" height="20" as="geometry">
            <mxRectangle width="30" height="20" as="alternateBounds" />
          </mxGeometry>
        </mxCell>
        <mxCell id="cro3qP4xw-rqxmjzF5Fg-102" value="patient_id INT" style="shape=partialRectangle;connectable=0;fillColor=none;top=0;left=0;bottom=0;right=0;align=left;spacingLeft=6;overflow=hidden;whiteSpace=wrap;html=1;" vertex="1" parent="cro3qP4xw-rqxmjzF5Fg-100">
          <mxGeometry x="30" width="210" height="20" as="geometry">
            <mxRectangle width="210" height="20" as="alternateBounds" />
          </mxGeometry>
        </mxCell>
        <mxCell id="cro3qP4xw-rqxmjzF5Fg-103" value="" style="shape=tableRow;horizontal=0;startSize=0;swimlaneHead=0;swimlaneBody=0;fillColor=none;collapsible=0;dropTarget=0;points=[[0,0.5],[1,0.5]];portConstraint=eastwest;top=0;left=0;right=0;bottom=0;" vertex="1" parent="cro3qP4xw-rqxmjzF5Fg-93">
          <mxGeometry y="100" width="240" height="30" as="geometry" />
        </mxCell>
        <mxCell id="cro3qP4xw-rqxmjzF5Fg-104" value="" style="shape=partialRectangle;connectable=0;fillColor=none;top=0;left=0;bottom=0;right=0;editable=1;overflow=hidden;whiteSpace=wrap;html=1;" vertex="1" parent="cro3qP4xw-rqxmjzF5Fg-103">
          <mxGeometry width="30" height="30" as="geometry">
            <mxRectangle width="30" height="30" as="alternateBounds" />
          </mxGeometry>
        </mxCell>
        <mxCell id="cro3qP4xw-rqxmjzF5Fg-105" value="acuity INT" style="shape=partialRectangle;connectable=0;fillColor=none;top=0;left=0;bottom=0;right=0;align=left;spacingLeft=6;overflow=hidden;whiteSpace=wrap;html=1;" vertex="1" parent="cro3qP4xw-rqxmjzF5Fg-103">
          <mxGeometry x="30" width="210" height="30" as="geometry">
            <mxRectangle width="210" height="30" as="alternateBounds" />
          </mxGeometry>
        </mxCell>
        <mxCell id="cro3qP4xw-rqxmjzF5Fg-106" value="" style="shape=tableRow;horizontal=0;startSize=0;swimlaneHead=0;swimlaneBody=0;fillColor=none;collapsible=0;dropTarget=0;points=[[0,0.5],[1,0.5]];portConstraint=eastwest;top=0;left=0;right=0;bottom=0;" vertex="1" parent="cro3qP4xw-rqxmjzF5Fg-93">
          <mxGeometry y="130" width="240" height="30" as="geometry" />
        </mxCell>
        <mxCell id="cro3qP4xw-rqxmjzF5Fg-107" value="" style="shape=partialRectangle;connectable=0;fillColor=none;top=0;left=0;bottom=0;right=0;editable=1;overflow=hidden;whiteSpace=wrap;html=1;" vertex="1" parent="cro3qP4xw-rqxmjzF5Fg-106">
          <mxGeometry width="30" height="30" as="geometry">
            <mxRectangle width="30" height="30" as="alternateBounds" />
          </mxGeometry>
        </mxCell>
        <mxCell id="cro3qP4xw-rqxmjzF5Fg-108" value="reason_for_visit VARCHAR(255)" style="shape=partialRectangle;connectable=0;fillColor=none;top=0;left=0;bottom=0;right=0;align=left;spacingLeft=6;overflow=hidden;whiteSpace=wrap;html=1;" vertex="1" parent="cro3qP4xw-rqxmjzF5Fg-106">
          <mxGeometry x="30" width="210" height="30" as="geometry">
            <mxRectangle width="210" height="30" as="alternateBounds" />
          </mxGeometry>
        </mxCell>
        <mxCell id="cro3qP4xw-rqxmjzF5Fg-109" value="" style="shape=tableRow;horizontal=0;startSize=0;swimlaneHead=0;swimlaneBody=0;fillColor=none;collapsible=0;dropTarget=0;points=[[0,0.5],[1,0.5]];portConstraint=eastwest;top=0;left=0;right=0;bottom=0;" vertex="1" parent="cro3qP4xw-rqxmjzF5Fg-93">
          <mxGeometry y="160" width="240" height="30" as="geometry" />
        </mxCell>
        <mxCell id="cro3qP4xw-rqxmjzF5Fg-110" value="" style="shape=partialRectangle;connectable=0;fillColor=none;top=0;left=0;bottom=0;right=0;editable=1;overflow=hidden;whiteSpace=wrap;html=1;" vertex="1" parent="cro3qP4xw-rqxmjzF5Fg-109">
          <mxGeometry width="30" height="30" as="geometry">
            <mxRectangle width="30" height="30" as="alternateBounds" />
          </mxGeometry>
        </mxCell>
        <mxCell id="cro3qP4xw-rqxmjzF5Fg-111" value="disposition VARCHAR(255)" style="shape=partialRectangle;connectable=0;fillColor=none;top=0;left=0;bottom=0;right=0;align=left;spacingLeft=6;overflow=hidden;whiteSpace=wrap;html=1;" vertex="1" parent="cro3qP4xw-rqxmjzF5Fg-109">
          <mxGeometry x="30" width="210" height="30" as="geometry">
            <mxRectangle width="210" height="30" as="alternateBounds" />
          </mxGeometry>
        </mxCell>
        <mxCell id="cro3qP4xw-rqxmjzF5Fg-115" value="Admissions" style="shape=table;startSize=30;container=1;collapsible=1;childLayout=tableLayout;fixedRows=1;rowLines=0;fontStyle=1;align=center;resizeLast=1;html=1;" vertex="1" parent="1">
          <mxGeometry x="60" y="320" width="280" height="220" as="geometry" />
        </mxCell>
        <mxCell id="cro3qP4xw-rqxmjzF5Fg-116" value="" style="shape=tableRow;horizontal=0;startSize=0;swimlaneHead=0;swimlaneBody=0;fillColor=none;collapsible=0;dropTarget=0;points=[[0,0.5],[1,0.5]];portConstraint=eastwest;top=0;left=0;right=0;bottom=1;" vertex="1" parent="cro3qP4xw-rqxmjzF5Fg-115">
          <mxGeometry y="30" width="280" height="30" as="geometry" />
        </mxCell>
        <mxCell id="cro3qP4xw-rqxmjzF5Fg-117" value="PK" style="shape=partialRectangle;connectable=0;fillColor=none;top=0;left=0;bottom=0;right=0;fontStyle=1;overflow=hidden;whiteSpace=wrap;html=1;" vertex="1" parent="cro3qP4xw-rqxmjzF5Fg-116">
          <mxGeometry width="30" height="30" as="geometry">
            <mxRectangle width="30" height="30" as="alternateBounds" />
          </mxGeometry>
        </mxCell>
        <mxCell id="cro3qP4xw-rqxmjzF5Fg-118" value="Admission_id INT" style="shape=partialRectangle;connectable=0;fillColor=none;top=0;left=0;bottom=0;right=0;align=left;spacingLeft=6;fontStyle=5;overflow=hidden;whiteSpace=wrap;html=1;" vertex="1" parent="cro3qP4xw-rqxmjzF5Fg-116">
          <mxGeometry x="30" width="250" height="30" as="geometry">
            <mxRectangle width="250" height="30" as="alternateBounds" />
          </mxGeometry>
        </mxCell>
        <mxCell id="cro3qP4xw-rqxmjzF5Fg-119" value="" style="shape=tableRow;horizontal=0;startSize=0;swimlaneHead=0;swimlaneBody=0;fillColor=none;collapsible=0;dropTarget=0;points=[[0,0.5],[1,0.5]];portConstraint=eastwest;top=0;left=0;right=0;bottom=0;" vertex="1" parent="cro3qP4xw-rqxmjzF5Fg-115">
          <mxGeometry y="60" width="280" height="20" as="geometry" />
        </mxCell>
        <mxCell id="cro3qP4xw-rqxmjzF5Fg-120" value="" style="shape=partialRectangle;connectable=0;fillColor=none;top=0;left=0;bottom=0;right=0;editable=1;overflow=hidden;whiteSpace=wrap;html=1;" vertex="1" parent="cro3qP4xw-rqxmjzF5Fg-119">
          <mxGeometry width="30" height="20" as="geometry">
            <mxRectangle width="30" height="20" as="alternateBounds" />
          </mxGeometry>
        </mxCell>
        <mxCell id="cro3qP4xw-rqxmjzF5Fg-121" value="patient_id INT" style="shape=partialRectangle;connectable=0;fillColor=none;top=0;left=0;bottom=0;right=0;align=left;spacingLeft=6;overflow=hidden;whiteSpace=wrap;html=1;" vertex="1" parent="cro3qP4xw-rqxmjzF5Fg-119">
          <mxGeometry x="30" width="250" height="20" as="geometry">
            <mxRectangle width="250" height="20" as="alternateBounds" />
          </mxGeometry>
        </mxCell>
        <mxCell id="cro3qP4xw-rqxmjzF5Fg-122" value="" style="shape=tableRow;horizontal=0;startSize=0;swimlaneHead=0;swimlaneBody=0;fillColor=none;collapsible=0;dropTarget=0;points=[[0,0.5],[1,0.5]];portConstraint=eastwest;top=0;left=0;right=0;bottom=0;" vertex="1" parent="cro3qP4xw-rqxmjzF5Fg-115">
          <mxGeometry y="80" width="280" height="20" as="geometry" />
        </mxCell>
        <mxCell id="cro3qP4xw-rqxmjzF5Fg-123" value="" style="shape=partialRectangle;connectable=0;fillColor=none;top=0;left=0;bottom=0;right=0;editable=1;overflow=hidden;whiteSpace=wrap;html=1;" vertex="1" parent="cro3qP4xw-rqxmjzF5Fg-122">
          <mxGeometry width="30" height="20" as="geometry">
            <mxRectangle width="30" height="20" as="alternateBounds" />
          </mxGeometry>
        </mxCell>
        <mxCell id="cro3qP4xw-rqxmjzF5Fg-124" value="admission_date DATE" style="shape=partialRectangle;connectable=0;fillColor=none;top=0;left=0;bottom=0;right=0;align=left;spacingLeft=6;overflow=hidden;whiteSpace=wrap;html=1;" vertex="1" parent="cro3qP4xw-rqxmjzF5Fg-122">
          <mxGeometry x="30" width="250" height="20" as="geometry">
            <mxRectangle width="250" height="20" as="alternateBounds" />
          </mxGeometry>
        </mxCell>
        <mxCell id="cro3qP4xw-rqxmjzF5Fg-125" value="" style="shape=tableRow;horizontal=0;startSize=0;swimlaneHead=0;swimlaneBody=0;fillColor=none;collapsible=0;dropTarget=0;points=[[0,0.5],[1,0.5]];portConstraint=eastwest;top=0;left=0;right=0;bottom=0;" vertex="1" parent="cro3qP4xw-rqxmjzF5Fg-115">
          <mxGeometry y="100" width="280" height="30" as="geometry" />
        </mxCell>
        <mxCell id="cro3qP4xw-rqxmjzF5Fg-126" value="" style="shape=partialRectangle;connectable=0;fillColor=none;top=0;left=0;bottom=0;right=0;editable=1;overflow=hidden;whiteSpace=wrap;html=1;" vertex="1" parent="cro3qP4xw-rqxmjzF5Fg-125">
          <mxGeometry width="30" height="30" as="geometry">
            <mxRectangle width="30" height="30" as="alternateBounds" />
          </mxGeometry>
        </mxCell>
        <mxCell id="cro3qP4xw-rqxmjzF5Fg-127" value="discharge_date DATE" style="shape=partialRectangle;connectable=0;fillColor=none;top=0;left=0;bottom=0;right=0;align=left;spacingLeft=6;overflow=hidden;whiteSpace=wrap;html=1;" vertex="1" parent="cro3qP4xw-rqxmjzF5Fg-125">
          <mxGeometry x="30" width="250" height="30" as="geometry">
            <mxRectangle width="250" height="30" as="alternateBounds" />
          </mxGeometry>
        </mxCell>
        <mxCell id="cro3qP4xw-rqxmjzF5Fg-128" value="" style="shape=tableRow;horizontal=0;startSize=0;swimlaneHead=0;swimlaneBody=0;fillColor=none;collapsible=0;dropTarget=0;points=[[0,0.5],[1,0.5]];portConstraint=eastwest;top=0;left=0;right=0;bottom=0;" vertex="1" parent="cro3qP4xw-rqxmjzF5Fg-115">
          <mxGeometry y="130" width="280" height="30" as="geometry" />
        </mxCell>
        <mxCell id="cro3qP4xw-rqxmjzF5Fg-129" value="" style="shape=partialRectangle;connectable=0;fillColor=none;top=0;left=0;bottom=0;right=0;editable=1;overflow=hidden;whiteSpace=wrap;html=1;" vertex="1" parent="cro3qP4xw-rqxmjzF5Fg-128">
          <mxGeometry width="30" height="30" as="geometry">
            <mxRectangle width="30" height="30" as="alternateBounds" />
          </mxGeometry>
        </mxCell>
        <mxCell id="cro3qP4xw-rqxmjzF5Fg-130" value="discharge_disposition VARCHAR(255)" style="shape=partialRectangle;connectable=0;fillColor=none;top=0;left=0;bottom=0;right=0;align=left;spacingLeft=6;overflow=hidden;whiteSpace=wrap;html=1;" vertex="1" parent="cro3qP4xw-rqxmjzF5Fg-128">
          <mxGeometry x="30" width="250" height="30" as="geometry">
            <mxRectangle width="250" height="30" as="alternateBounds" />
          </mxGeometry>
        </mxCell>
        <mxCell id="cro3qP4xw-rqxmjzF5Fg-131" value="" style="shape=tableRow;horizontal=0;startSize=0;swimlaneHead=0;swimlaneBody=0;fillColor=none;collapsible=0;dropTarget=0;points=[[0,0.5],[1,0.5]];portConstraint=eastwest;top=0;left=0;right=0;bottom=0;" vertex="1" parent="cro3qP4xw-rqxmjzF5Fg-115">
          <mxGeometry y="160" width="280" height="30" as="geometry" />
        </mxCell>
        <mxCell id="cro3qP4xw-rqxmjzF5Fg-132" value="" style="shape=partialRectangle;connectable=0;fillColor=none;top=0;left=0;bottom=0;right=0;editable=1;overflow=hidden;whiteSpace=wrap;html=1;" vertex="1" parent="cro3qP4xw-rqxmjzF5Fg-131">
          <mxGeometry width="30" height="30" as="geometry">
            <mxRectangle width="30" height="30" as="alternateBounds" />
          </mxGeometry>
        </mxCell>
        <mxCell id="cro3qP4xw-rqxmjzF5Fg-133" value="service VARCHAR(255)" style="shape=partialRectangle;connectable=0;fillColor=none;top=0;left=0;bottom=0;right=0;align=left;spacingLeft=6;overflow=hidden;whiteSpace=wrap;html=1;" vertex="1" parent="cro3qP4xw-rqxmjzF5Fg-131">
          <mxGeometry x="30" width="250" height="30" as="geometry">
            <mxRectangle width="250" height="30" as="alternateBounds" />
          </mxGeometry>
        </mxCell>
        <mxCell id="cro3qP4xw-rqxmjzF5Fg-134" value="" style="shape=tableRow;horizontal=0;startSize=0;swimlaneHead=0;swimlaneBody=0;fillColor=none;collapsible=0;dropTarget=0;points=[[0,0.5],[1,0.5]];portConstraint=eastwest;top=0;left=0;right=0;bottom=0;" vertex="1" parent="cro3qP4xw-rqxmjzF5Fg-115">
          <mxGeometry y="190" width="280" height="30" as="geometry" />
        </mxCell>
        <mxCell id="cro3qP4xw-rqxmjzF5Fg-135" value="" style="shape=partialRectangle;connectable=0;fillColor=none;top=0;left=0;bottom=0;right=0;editable=1;overflow=hidden;whiteSpace=wrap;html=1;" vertex="1" parent="cro3qP4xw-rqxmjzF5Fg-134">
          <mxGeometry width="30" height="30" as="geometry">
            <mxRectangle width="30" height="30" as="alternateBounds" />
          </mxGeometry>
        </mxCell>
        <mxCell id="cro3qP4xw-rqxmjzF5Fg-136" value="primary_diagnosis VARCHAR(255)" style="shape=partialRectangle;connectable=0;fillColor=none;top=0;left=0;bottom=0;right=0;align=left;spacingLeft=6;overflow=hidden;whiteSpace=wrap;html=1;" vertex="1" parent="cro3qP4xw-rqxmjzF5Fg-134">
          <mxGeometry x="30" width="250" height="30" as="geometry">
            <mxRectangle width="250" height="30" as="alternateBounds" />
          </mxGeometry>
        </mxCell>
        <mxCell id="cro3qP4xw-rqxmjzF5Fg-137" value="Discharge" style="shape=table;startSize=30;container=1;collapsible=1;childLayout=tableLayout;fixedRows=1;rowLines=0;fontStyle=1;align=center;resizeLast=1;html=1;" vertex="1" parent="1">
          <mxGeometry x="250" y="620" width="220" height="240" as="geometry" />
        </mxCell>
        <mxCell id="cro3qP4xw-rqxmjzF5Fg-138" value="" style="shape=tableRow;horizontal=0;startSize=0;swimlaneHead=0;swimlaneBody=0;fillColor=none;collapsible=0;dropTarget=0;points=[[0,0.5],[1,0.5]];portConstraint=eastwest;top=0;left=0;right=0;bottom=1;" vertex="1" parent="cro3qP4xw-rqxmjzF5Fg-137">
          <mxGeometry y="30" width="220" height="30" as="geometry" />
        </mxCell>
        <mxCell id="cro3qP4xw-rqxmjzF5Fg-139" value="PK" style="shape=partialRectangle;connectable=0;fillColor=none;top=0;left=0;bottom=0;right=0;fontStyle=1;overflow=hidden;whiteSpace=wrap;html=1;" vertex="1" parent="cro3qP4xw-rqxmjzF5Fg-138">
          <mxGeometry width="30" height="30" as="geometry">
            <mxRectangle width="30" height="30" as="alternateBounds" />
          </mxGeometry>
        </mxCell>
        <mxCell id="cro3qP4xw-rqxmjzF5Fg-140" value="Discharge_id INT" style="shape=partialRectangle;connectable=0;fillColor=none;top=0;left=0;bottom=0;right=0;align=left;spacingLeft=6;fontStyle=5;overflow=hidden;whiteSpace=wrap;html=1;" vertex="1" parent="cro3qP4xw-rqxmjzF5Fg-138">
          <mxGeometry x="30" width="190" height="30" as="geometry">
            <mxRectangle width="190" height="30" as="alternateBounds" />
          </mxGeometry>
        </mxCell>
        <mxCell id="cro3qP4xw-rqxmjzF5Fg-141" value="" style="shape=tableRow;horizontal=0;startSize=0;swimlaneHead=0;swimlaneBody=0;fillColor=none;collapsible=0;dropTarget=0;points=[[0,0.5],[1,0.5]];portConstraint=eastwest;top=0;left=0;right=0;bottom=0;" vertex="1" parent="cro3qP4xw-rqxmjzF5Fg-137">
          <mxGeometry y="60" width="220" height="20" as="geometry" />
        </mxCell>
        <mxCell id="cro3qP4xw-rqxmjzF5Fg-142" value="" style="shape=partialRectangle;connectable=0;fillColor=none;top=0;left=0;bottom=0;right=0;editable=1;overflow=hidden;whiteSpace=wrap;html=1;" vertex="1" parent="cro3qP4xw-rqxmjzF5Fg-141">
          <mxGeometry width="30" height="20" as="geometry">
            <mxRectangle width="30" height="20" as="alternateBounds" />
          </mxGeometry>
        </mxCell>
        <mxCell id="cro3qP4xw-rqxmjzF5Fg-143" value="admission_id INT" style="shape=partialRectangle;connectable=0;fillColor=none;top=0;left=0;bottom=0;right=0;align=left;spacingLeft=6;overflow=hidden;whiteSpace=wrap;html=1;" vertex="1" parent="cro3qP4xw-rqxmjzF5Fg-141">
          <mxGeometry x="30" width="190" height="20" as="geometry">
            <mxRectangle width="190" height="20" as="alternateBounds" />
          </mxGeometry>
        </mxCell>
        <mxCell id="cro3qP4xw-rqxmjzF5Fg-144" value="" style="shape=tableRow;horizontal=0;startSize=0;swimlaneHead=0;swimlaneBody=0;fillColor=none;collapsible=0;dropTarget=0;points=[[0,0.5],[1,0.5]];portConstraint=eastwest;top=0;left=0;right=0;bottom=0;" vertex="1" parent="cro3qP4xw-rqxmjzF5Fg-137">
          <mxGeometry y="80" width="220" height="20" as="geometry" />
        </mxCell>
        <mxCell id="cro3qP4xw-rqxmjzF5Fg-145" value="" style="shape=partialRectangle;connectable=0;fillColor=none;top=0;left=0;bottom=0;right=0;editable=1;overflow=hidden;whiteSpace=wrap;html=1;" vertex="1" parent="cro3qP4xw-rqxmjzF5Fg-144">
          <mxGeometry width="30" height="20" as="geometry">
            <mxRectangle width="30" height="20" as="alternateBounds" />
          </mxGeometry>
        </mxCell>
        <mxCell id="cro3qP4xw-rqxmjzF5Fg-146" value="patient_id INT" style="shape=partialRectangle;connectable=0;fillColor=none;top=0;left=0;bottom=0;right=0;align=left;spacingLeft=6;overflow=hidden;whiteSpace=wrap;html=1;" vertex="1" parent="cro3qP4xw-rqxmjzF5Fg-144">
          <mxGeometry x="30" width="190" height="20" as="geometry">
            <mxRectangle width="190" height="20" as="alternateBounds" />
          </mxGeometry>
        </mxCell>
        <mxCell id="cro3qP4xw-rqxmjzF5Fg-147" value="" style="shape=tableRow;horizontal=0;startSize=0;swimlaneHead=0;swimlaneBody=0;fillColor=none;collapsible=0;dropTarget=0;points=[[0,0.5],[1,0.5]];portConstraint=eastwest;top=0;left=0;right=0;bottom=0;" vertex="1" parent="cro3qP4xw-rqxmjzF5Fg-137">
          <mxGeometry y="100" width="220" height="30" as="geometry" />
        </mxCell>
        <mxCell id="cro3qP4xw-rqxmjzF5Fg-148" value="" style="shape=partialRectangle;connectable=0;fillColor=none;top=0;left=0;bottom=0;right=0;editable=1;overflow=hidden;whiteSpace=wrap;html=1;" vertex="1" parent="cro3qP4xw-rqxmjzF5Fg-147">
          <mxGeometry width="30" height="30" as="geometry">
            <mxRectangle width="30" height="30" as="alternateBounds" />
          </mxGeometry>
        </mxCell>
        <mxCell id="cro3qP4xw-rqxmjzF5Fg-149" value="discharge_date DATE" style="shape=partialRectangle;connectable=0;fillColor=none;top=0;left=0;bottom=0;right=0;align=left;spacingLeft=6;overflow=hidden;whiteSpace=wrap;html=1;" vertex="1" parent="cro3qP4xw-rqxmjzF5Fg-147">
          <mxGeometry x="30" width="190" height="30" as="geometry">
            <mxRectangle width="190" height="30" as="alternateBounds" />
          </mxGeometry>
        </mxCell>
        <mxCell id="cro3qP4xw-rqxmjzF5Fg-150" value="" style="shape=tableRow;horizontal=0;startSize=0;swimlaneHead=0;swimlaneBody=0;fillColor=none;collapsible=0;dropTarget=0;points=[[0,0.5],[1,0.5]];portConstraint=eastwest;top=0;left=0;right=0;bottom=0;" vertex="1" parent="cro3qP4xw-rqxmjzF5Fg-137">
          <mxGeometry y="130" width="220" height="30" as="geometry" />
        </mxCell>
        <mxCell id="cro3qP4xw-rqxmjzF5Fg-151" value="" style="shape=partialRectangle;connectable=0;fillColor=none;top=0;left=0;bottom=0;right=0;editable=1;overflow=hidden;whiteSpace=wrap;html=1;" vertex="1" parent="cro3qP4xw-rqxmjzF5Fg-150">
          <mxGeometry width="30" height="30" as="geometry">
            <mxRectangle width="30" height="30" as="alternateBounds" />
          </mxGeometry>
        </mxCell>
        <mxCell id="cro3qP4xw-rqxmjzF5Fg-152" value="discharge_disposition VARCHAR(255)" style="shape=partialRectangle;connectable=0;fillColor=none;top=0;left=0;bottom=0;right=0;align=left;spacingLeft=6;overflow=hidden;whiteSpace=wrap;html=1;" vertex="1" parent="cro3qP4xw-rqxmjzF5Fg-150">
          <mxGeometry x="30" width="190" height="30" as="geometry">
            <mxRectangle width="190" height="30" as="alternateBounds" />
          </mxGeometry>
        </mxCell>
        <mxCell id="cro3qP4xw-rqxmjzF5Fg-153" value="" style="shape=tableRow;horizontal=0;startSize=0;swimlaneHead=0;swimlaneBody=0;fillColor=none;collapsible=0;dropTarget=0;points=[[0,0.5],[1,0.5]];portConstraint=eastwest;top=0;left=0;right=0;bottom=0;" vertex="1" parent="cro3qP4xw-rqxmjzF5Fg-137">
          <mxGeometry y="160" width="220" height="30" as="geometry" />
        </mxCell>
        <mxCell id="cro3qP4xw-rqxmjzF5Fg-154" value="" style="shape=partialRectangle;connectable=0;fillColor=none;top=0;left=0;bottom=0;right=0;editable=1;overflow=hidden;whiteSpace=wrap;html=1;" vertex="1" parent="cro3qP4xw-rqxmjzF5Fg-153">
          <mxGeometry width="30" height="30" as="geometry">
            <mxRectangle width="30" height="30" as="alternateBounds" />
          </mxGeometry>
        </mxCell>
        <mxCell id="cro3qP4xw-rqxmjzF5Fg-155" value="" style="shape=partialRectangle;connectable=0;fillColor=none;top=0;left=0;bottom=0;right=0;align=left;spacingLeft=6;overflow=hidden;whiteSpace=wrap;html=1;movable=0;resizable=0;rotatable=0;deletable=0;editable=0;locked=1;" vertex="1" parent="cro3qP4xw-rqxmjzF5Fg-153">
          <mxGeometry x="30" width="190" height="30" as="geometry">
            <mxRectangle width="190" height="30" as="alternateBounds" />
          </mxGeometry>
        </mxCell>
        <mxCell id="cro3qP4xw-rqxmjzF5Fg-156" value="" style="shape=tableRow;horizontal=0;startSize=0;swimlaneHead=0;swimlaneBody=0;fillColor=none;collapsible=0;dropTarget=0;points=[[0,0.5],[1,0.5]];portConstraint=eastwest;top=0;left=0;right=0;bottom=0;" vertex="1" parent="cro3qP4xw-rqxmjzF5Fg-137">
          <mxGeometry y="190" width="220" height="20" as="geometry" />
        </mxCell>
        <mxCell id="cro3qP4xw-rqxmjzF5Fg-157" value="" style="shape=partialRectangle;connectable=0;fillColor=none;top=0;left=0;bottom=0;right=0;editable=1;overflow=hidden;whiteSpace=wrap;html=1;" vertex="1" parent="cro3qP4xw-rqxmjzF5Fg-156">
          <mxGeometry width="30" height="20" as="geometry">
            <mxRectangle width="30" height="20" as="alternateBounds" />
          </mxGeometry>
        </mxCell>
        <mxCell id="cro3qP4xw-rqxmjzF5Fg-158" value="" style="shape=partialRectangle;connectable=0;fillColor=none;top=0;left=0;bottom=0;right=0;align=left;spacingLeft=6;overflow=hidden;whiteSpace=wrap;html=1;" vertex="1" parent="cro3qP4xw-rqxmjzF5Fg-156">
          <mxGeometry x="30" width="190" height="20" as="geometry">
            <mxRectangle width="190" height="20" as="alternateBounds" />
          </mxGeometry>
        </mxCell>
        <mxCell id="cro3qP4xw-rqxmjzF5Fg-181" value="" style="shape=tableRow;horizontal=0;startSize=0;swimlaneHead=0;swimlaneBody=0;fillColor=none;collapsible=0;dropTarget=0;points=[[0,0.5],[1,0.5]];portConstraint=eastwest;top=0;left=0;right=0;bottom=0;" vertex="1" parent="cro3qP4xw-rqxmjzF5Fg-137">
          <mxGeometry y="210" width="220" height="30" as="geometry" />
        </mxCell>
        <mxCell id="cro3qP4xw-rqxmjzF5Fg-182" value="" style="shape=partialRectangle;connectable=0;fillColor=none;top=0;left=0;bottom=0;right=0;editable=1;overflow=hidden;whiteSpace=wrap;html=1;" vertex="1" parent="cro3qP4xw-rqxmjzF5Fg-181">
          <mxGeometry width="30" height="30" as="geometry">
            <mxRectangle width="30" height="30" as="alternateBounds" />
          </mxGeometry>
        </mxCell>
        <mxCell id="cro3qP4xw-rqxmjzF5Fg-183" value="" style="shape=partialRectangle;connectable=0;fillColor=none;top=0;left=0;bottom=0;right=0;align=left;spacingLeft=6;overflow=hidden;whiteSpace=wrap;html=1;" vertex="1" parent="cro3qP4xw-rqxmjzF5Fg-181">
          <mxGeometry x="30" width="190" height="30" as="geometry">
            <mxRectangle width="190" height="30" as="alternateBounds" />
          </mxGeometry>
        </mxCell>
      </root>
    </mxGraphModel>
  </diagram>
</mxfile>
